<?xml version="1.0" encoding="UTF-8" standalone="no"?>
<svg
   xmlns:dc="http://purl.org/dc/elements/1.1/"
   xmlns:cc="http://creativecommons.org/ns#"
   xmlns:rdf="http://www.w3.org/1999/02/22-rdf-syntax-ns#"
   xmlns:svg="http://www.w3.org/2000/svg"
   xmlns="http://www.w3.org/2000/svg"
   width="500"
   height="500"
   viewBox="0 0 132.29166 132.29167"
   version="1.1"
   id="svg8">
  <defs
     id="defs2">
    <rect
       x="111.05049"
       y="112.65411"
       width="13.363476"
       height="14.432554"
       id="rect871" />
    <rect
       x="18.709821"
       y="19.276786"
       width="79.563988"
       height="86.178572"
       id="rect865" />
  </defs>
  <metadata
     id="metadata5">
    <rdf:RDF>
      <cc:Work
         rdf:about="">
        <dc:format>image/svg+xml</dc:format>
        <dc:type
           rdf:resource="http://purl.org/dc/dcmitype/StillImage" />
        <dc:title></dc:title>
      </cc:Work>
    </rdf:RDF>
  </metadata>
  <g
     id="layer1">
    <path
       id="rect38"
       style="fill:#000000;fill-opacity:1;fill-rule:evenodd;stroke-width:2.61795"
       d="M 64.876953 5.7285156 C 32.932616 5.7285156 7.2148437 31.446287 7.2148438 63.390625 L 7.2148438 436.60938 C 7.2148437 468.5537 32.932616 494.27148 64.876953 494.27148 L 435.12305 494.27148 C 467.06739 494.27148 492.78516 468.5537 492.78516 436.60938 L 492.78516 63.390625 C 492.78516 31.446287 467.06739 5.7285156 435.12305 5.7285156 L 64.876953 5.7285156 z M 225.5293 111.98242 L 274.4707 111.98242 L 374.94922 388.01758 L 335.83203 388.01758 L 308.76758 311.08398 L 189.37891 311.08398 L 162.3125 388.01758 L 125.05078 388.01758 L 225.5293 111.98242 z M 249.07227 144.05273 L 200.50195 279.56836 L 297.45898 279.56836 L 249.07227 144.05273 z M 436.49609 417.41602 L 441.35742 417.41602 L 441.35742 459.50586 L 450.89062 459.50586 L 450.89062 464.27344 L 425.61133 464.27344 L 425.61133 459.50586 L 435.33398 459.50586 L 435.33398 428.20508 L 425.61133 428.20508 L 425.61133 423.93945 C 426.9286 423.93945 428.34025 423.83409 429.8457 423.625 C 431.35116 423.395 432.49199 423.07248 433.26562 422.6543 C 434.22744 422.13157 434.9798 421.47228 435.52344 420.67773 C 436.08798 419.86228 436.41246 418.77511 436.49609 417.41602 z "
       transform="scale(0.26458333)" />
  </g>
</svg>
